<?xml version="1.0" standalone="no"?>
<!DOCTYPE svg PUBLIC "-//W3C//DTD SVG 20010904//EN"
 "http://www.w3.org/TR/2001/REC-SVG-20010904/DTD/svg10.dtd">
<svg version="1.0" xmlns="http://www.w3.org/2000/svg"
 width="252.000000pt" height="252.000000pt" viewBox="0 0 252.000000 252.000000"
 preserveAspectRatio="xMidYMid meet">
<metadata>
Created by potrace 1.14, written by Peter Selinger 2001-2017
</metadata>
<g transform="translate(0.000000,252.000000) scale(0.100000,-0.100000)"
fill="#000000" stroke="none">
<path d="M0 1260 l0 -1260 1260 0 1260 0 0 1260 0 1260 -1260 0 -1260 0 0
-1260z m1208 553 l3 -103 -248 -2 c-136 -2 -356 -2 -488 -1 -132 2 -244 3
-249 3 -6 0 -3 199 3 206 1 0 220 0 489 0 l487 -1 3 -102z m1162 98 c0 -5
-107 -112 -237 -238 -130 -125 -306 -295 -390 -378 l-154 -150 -2 -250 -2
-250 -102 -3 -103 -3 0 620 c0 341 -3 627 -6 636 -6 14 6 15 102 13 l109 -3
-4 -232 c-2 -184 -1 -233 10 -233 7 0 118 105 248 234 130 128 243 236 251
239 26 9 280 7 280 -2z m-1162 -634 l-3 -102 -382 -3 -383 -2 0 -68 c0 -37 -3
-111 -7 -164 l-6 -98 391 0 392 0 0 -100 c0 -55 -3 -100 -7 -101 -65 -5 -966
-2 -970 4 -5 9 -4 717 1 726 3 3 223 7 490 8 l487 3 -3 -103z m889 -214 c14
-16 64 -75 111 -133 47 -58 121 -146 164 -197 59 -70 74 -93 62 -97 -25 -10
-186 -7 -224 4 -42 11 -75 45 -196 195 -48 61 -110 137 -136 169 -26 33 -48
66 -48 73 0 10 28 13 120 13 119 0 121 0 147 -27z"/>
</g>
</svg>
